<svg width="32" height="32" viewBox="0 0 32 32" fill="none" xmlns="http://www.w3.org/2000/svg">
<path d="M9.11673 21.0856C8.57729 21.0856 8.2666 21.3798 8.2666 22.0256V24.3065C8.2666 24.9523 8.57729 25.2466 9.11673 25.2466C9.6481 25.2466 9.97523 24.9523 9.97523 24.3065V22.0256C9.97529 21.3798 9.6481 21.0856 9.11673 21.0856Z" fill="#775443"/>
<path d="M28.552 14.3318H25.6005L21.3275 6.30392C21.0373 6.95799 20.6304 7.54905 20.133 8.05031L23.4765 14.3318H8.52353L11.8669 8.05031C11.3695 7.54899 10.9625 6.95793 10.6724 6.30392L6.39946 14.3318H3.44783C1.54669 14.3318 0 15.8785 0 17.7797V28.5518C0 30.453 1.54669 31.9998 3.44783 31.9998H28.552C30.4532 31.9998 31.9999 30.453 31.9999 28.5518V17.7797C31.9999 15.8785 30.4532 14.3318 28.552 14.3318ZM11.0382 24.3062C11.0382 25.6713 10.1962 26.1783 9.1171 26.1783C8.03809 26.1783 7.20428 25.6713 7.20428 24.3062V22.0253C7.20428 20.66 8.03816 20.1533 9.1171 20.1533C10.1962 20.1533 11.0382 20.66 11.0382 22.0253V24.3062ZM15.8449 22.0417C15.8449 23.3822 15.0027 23.8974 13.9236 23.8974H13.0081V25.794C13.0081 26.0148 12.7384 26.1293 12.4769 26.1293C12.2071 26.1293 11.9454 26.0148 11.9454 25.794V20.4802C11.9454 20.3086 12.1006 20.1533 12.346 20.1533H13.9892C15.0274 20.1533 15.8449 20.652 15.8449 21.9927V22.0417ZM18.8039 22.7201C19.0164 22.7201 19.1392 22.9245 19.1392 23.1453C19.1392 23.3333 19.0328 23.5541 18.8039 23.5541H17.5613V25.1972H19.8749C20.0873 25.1972 20.21 25.418 20.21 25.6713C20.21 25.8921 20.1036 26.1293 19.8749 26.1293H16.9645C16.7274 26.1293 16.4986 26.0148 16.4986 25.794V20.4884C16.4986 20.2676 16.7274 20.1533 16.9645 20.1533H19.8749C20.1036 20.1533 20.21 20.3904 20.21 20.611C20.21 20.8645 20.0873 21.0852 19.8749 21.0852H17.5613V22.7201H18.8039ZM24.7958 25.794C24.7958 26.0148 24.5262 26.1293 24.2643 26.1293C24.0109 26.1293 23.7903 26.0475 23.6513 25.794L21.8937 22.5077V25.794C21.8937 26.0148 21.624 26.1293 21.3622 26.1293C21.0926 26.1293 20.831 26.0148 20.831 25.794V20.4884C20.831 20.2595 21.0926 20.1533 21.3622 20.1533C21.7466 20.1533 21.902 20.235 22.1554 20.7174L23.733 23.7667V20.4802C23.733 20.2514 23.9947 20.1533 24.2643 20.1533C24.5262 20.1533 24.7958 20.2514 24.7958 20.4802V25.794H24.7958Z" fill="#775443"/>
<path d="M13.9233 21.0856H13.0078V23.0639H13.9233C14.4548 23.0639 14.7817 22.7616 14.7817 22.1239V22.0256C14.7817 21.3881 14.4547 21.0856 13.9233 21.0856Z" fill="#775443"/>
<path d="M15.9999 7.89994C18.1779 7.89994 19.9498 6.128 19.9498 3.95C19.9498 1.77194 18.1778 0 15.9999 0C13.8217 0 12.0498 1.77194 12.0498 3.95C12.0498 6.12806 13.8218 7.89994 15.9999 7.89994Z" fill="#775443"/>
</svg>
