<svg width="16" height="16" viewBox="0 0 24 24" fill="none" xmlns="http://www.w3.org/2000/svg">
<path d="M23.5678 10.8499L20.7969 5.76566H22.8052C23.1611 5.76566 23.4661 5.46061 23.4661 5.10471C23.4661 4.74882 23.1611 4.44376 22.8052 4.44376H14.2891C13.9332 3.1727 12.5859 2.43549 11.3148 2.79139C10.5014 3.02018 9.89124 3.65571 9.66245 4.44376H1.17179C0.815892 4.44376 0.510838 4.74882 0.510838 5.10471C0.510838 5.46061 0.815892 5.76566 1.17179 5.76566H3.18006L0.409154 10.8499C0.154942 10.9516 -0.0230059 11.2058 0.00241521 11.4854C0.00241521 13.8496 1.93442 15.7816 4.29859 15.7816C6.66276 15.7816 8.59476 13.8496 8.59476 11.4854C8.59476 11.2058 8.41682 10.977 8.18803 10.8753L5.3917 5.74024H9.71329C9.94209 6.5283 10.5522 7.16383 11.3657 7.39262V16.951C9.58619 17.256 8.28971 18.8321 8.28971 20.637C8.28971 20.9929 8.59476 21.298 8.95066 21.298H15.128C15.4839 21.298 15.789 20.9929 15.789 20.637C15.789 18.8321 14.4925 17.2814 12.713 16.951V7.41804C13.501 7.18925 14.1366 6.57914 14.3654 5.76566H18.687L15.8398 10.8499C15.5602 10.9516 15.3822 11.2058 15.4076 11.4854C15.4076 13.8496 17.3396 15.7816 19.7038 15.7816C22.068 15.7816 24 13.8496 24 11.4854C24 11.2058 23.8475 10.9516 23.5678 10.8499ZM6.66276 10.7991H1.93442L4.29859 6.45203L6.66276 10.7991ZM17.3651 10.7991L19.7292 6.45203L22.0934 10.7991H17.3651Z" fill="#929EB0"/>
</svg>
