<svg width="12" height="12" viewBox="0 0 12 12" fill="none" xmlns="http://www.w3.org/2000/svg">
<path d="M9.78639 6.83458C7.94828 6.90626 6.20803 7.38422 4.65749 8.17637L2.66368 9.32765C2.13639 9.63169 1.46299 9.44921 1.16038 8.92464L0.147105 7.17009C-0.156154 6.64458 0.0246014 5.97006 0.550117 5.6668L2.20199 4.71294C2.29764 4.65772 2.41997 4.69047 2.47522 4.78615L3.77321 7.03434C3.82941 7.13167 3.95507 7.16397 4.05152 7.10451C4.1448 7.04701 4.17027 6.92206 4.11547 6.82716L2.80811 4.56272C2.75618 4.47276 2.78168 4.35793 2.86706 4.29876C4.23077 3.35328 5.38451 2.14907 6.27053 0.744654C6.60619 0.212164 7.38834 0.226414 7.70383 0.772655L10.4787 5.57929C10.794 6.12436 10.4165 6.81008 9.78639 6.83458ZM10.1424 3.48693C10.2452 2.89897 9.90057 2.30925 9.34357 2.10739C9.16849 2.04394 9.00966 2.23447 9.10274 2.39575C9.32435 2.77969 9.54675 3.16495 9.77164 3.55431C9.86559 3.71694 10.1101 3.67196 10.1424 3.48693ZM5.52551 10.5639L4.57638 8.91632C4.52123 8.82056 4.39875 8.78774 4.30303 8.84297C3.78864 9.13975 3.76919 9.15127 3.08304 9.54734C2.98736 9.60256 2.95446 9.72497 3.00971 9.82064L3.96047 11.4672C4.08235 11.6781 4.30153 11.7927 4.52473 11.7927C4.74124 11.7927 4.82404 11.7195 5.28751 11.452C5.59801 11.2727 5.70477 10.8742 5.52551 10.5639ZM11.6028 1.96619C11.6984 1.91096 11.7312 1.78863 11.676 1.69298C11.6208 1.59735 11.4985 1.56453 11.4028 1.61978L10.8853 1.91856C10.7082 2.02082 10.7823 2.29182 10.9855 2.29182C11.0566 2.2918 11.0424 2.28975 11.6028 1.96619ZM9.76369 0.929784L9.88989 0.458871C9.91849 0.352168 9.85516 0.242514 9.74849 0.213914C9.64171 0.185363 9.5321 0.24864 9.5035 0.355343L9.3773 0.826256C9.34332 0.95306 9.43888 1.07809 9.57061 1.07809C9.65891 1.07806 9.73974 1.01914 9.76369 0.929784ZM11.9932 4.1018C12.0218 3.9951 11.9584 3.88542 11.8517 3.85684L11.3808 3.73067C11.2741 3.70214 11.1644 3.76542 11.1358 3.8721C11.1072 3.97877 11.1706 4.08845 11.2773 4.11705C11.7923 4.25506 11.764 4.25011 11.8001 4.25011C11.8884 4.25011 11.9692 4.19115 11.9932 4.1018Z" fill="white"/>
</svg>
