<svg width="13" height="13" viewBox="0 0 13 13" fill="none" xmlns="http://www.w3.org/2000/svg">
<path fill-rule="evenodd" clip-rule="evenodd" d="M0 3V4.75736C0 5.55301 0.316069 6.31607 0.878679 6.87868L5.21201 11.212C6.38359 12.3836 8.28308 12.3836 9.45465 11.212L11.212 9.45465C12.3836 8.28308 12.3836 6.38359 11.212 5.21201L6.87868 0.87868C6.31607 0.316071 5.55301 0 4.75736 0H3C1.34315 0 0 1.34315 0 3ZM4 5.33333C4.73638 5.33333 5.33333 4.73638 5.33333 4C5.33333 3.26362 4.73638 2.66667 4 2.66667C3.26362 2.66667 2.66667 3.26362 2.66667 4C2.66667 4.73638 3.26362 5.33333 4 5.33333Z" fill="white"/>
</svg>
