<svg width="22" height="20" viewBox="0 0 22 20" fill="none" xmlns="http://www.w3.org/2000/svg">
<path d="M10.0825 0.615733C10.4307 -0.187147 11.5693 -0.187147 11.9175 0.615732L14.0238 5.47316C14.1687 5.80732 14.4838 6.03626 14.8464 6.07081L20.117 6.57304C20.9882 6.65605 21.34 7.73892 20.684 8.31814L16.7152 11.8224C16.4422 12.0635 16.3218 12.4339 16.401 12.7894L17.5521 17.9573C17.7423 18.8115 16.8212 19.4807 16.0676 19.0358L11.5084 16.3441C11.1948 16.159 10.8052 16.159 10.4916 16.3441L5.93241 19.0358C5.17882 19.4807 4.25768 18.8115 4.44794 17.9573L5.59899 12.7894C5.67817 12.4339 5.55781 12.0635 5.28479 11.8224L1.31599 8.31814C0.659996 7.73892 1.01184 6.65605 1.88301 6.57304L7.1536 6.07081C7.51618 6.03626 7.8313 5.80732 7.9762 5.47316L10.0825 0.615733Z" fill="#3E85DC"/>
</svg>
