<svg width="16" height="16" viewBox="0 0 16 16" fill="none" xmlns="http://www.w3.org/2000/svg">
<path d="M15.2898 8.00101L16 6.73391L14.933 5.74835L15.2169 4.32382L13.8976 3.71619L13.7274 2.27363L12.2848 2.10348L11.6772 0.784101L10.2527 1.06807L9.26706 0.00100708L8 0.711226L6.73294 0.00100708L5.74738 1.06804L4.32284 0.78407L3.71522 2.10344L2.27266 2.2736L2.1025 3.71616L0.783125 4.32379L1.06709 5.74832L0 6.73391L0.710219 8.00098L0 9.26807L1.06703 10.2536L0.783063 11.6782L2.10244 12.2858L2.27259 13.7283L3.71516 13.8985L4.32278 15.2179L5.74731 14.9339L6.73287 16.0009L7.99994 15.2907L9.267 16.0009L10.2526 14.9339L11.6771 15.2179L12.2847 13.8985L13.7273 13.7283L13.8974 12.2858L15.2168 11.6782L14.9328 10.2536L15.9999 9.26807L15.2898 8.00101ZM5.75291 9.37644H5.07919L3.85344 7.85951V9.37644H3.00588V6.29038H3.66656L4.90534 7.85951V6.29038H5.75291V9.37644ZM8.48256 9.37644H6.28322V6.29038H8.44347V7.02929H7.13081V7.46394H8.25222V8.15069H7.13081V8.63751H8.48259V9.37644H8.48256ZM12.051 9.37644H11.3468L10.9078 8.27238L10.4732 9.37644H9.76909L8.56075 6.29038H9.47787L10.1473 8.40713L10.3602 7.76388L9.86034 6.29038H10.6384L10.9079 7.24226L11.1817 6.29038H11.9598L11.4512 7.76388L11.6729 8.40713L12.338 6.29038H13.2594L12.051 9.37644Z" fill="white"/>
</svg>
