<svg width="22" height="21" viewBox="0 0 22 21" fill="none" xmlns="http://www.w3.org/2000/svg">
<path d="M10.0825 1.61573C10.4307 0.812853 11.5693 0.812852 11.9175 1.61573L14.0238 6.47316C14.1687 6.80732 14.4838 7.03626 14.8464 7.07081L20.117 7.57304C20.9882 7.65605 21.34 8.73892 20.684 9.31814L16.7152 12.8224C16.4422 13.0635 16.3218 13.4339 16.401 13.7894L17.5521 18.9573C17.7423 19.8115 16.8212 20.4807 16.0676 20.0358L11.5084 17.3441C11.1948 17.159 10.8052 17.159 10.4916 17.3441L5.93241 20.0358C5.17882 20.4807 4.25768 19.8115 4.44794 18.9573L5.59899 13.7894C5.67817 13.4339 5.55781 13.0635 5.28479 12.8224L1.31599 9.31814C0.659996 8.73892 1.01184 7.65605 1.88301 7.57304L7.1536 7.07081C7.51618 7.03626 7.8313 6.80732 7.9762 6.47316L10.0825 1.61573Z" stroke="#3E85DC" stroke-width="1.2"/>
</svg>
