<svg width="24" height="24" viewBox="0 0 24 24" fill="#3983DF" xmlns="http://www.w3.org/2000/svg">
<path d="M21 13.875V11.7803L19.6098 10.3902L20.1402 9.85983L21 10.7197V9.15534L19.6098 7.76517L20.1402 7.23483L21 8.09466V6.53034L19.6098 5.14017L20.1402 4.60983L21 5.46966V3.75C20.9998 3.55116 20.9207 3.36053 20.7801 3.21993C20.6395 3.07933 20.4488 3.00024 20.25 3H17.7803L16.3902 4.39017L15.8598 3.85983L16.7197 3H15.1553L13.7652 4.39017L13.2348 3.85983L14.0947 3H12.5303L11.1402 4.39017L10.6098 3.85983L11.4697 3H10.125C9.92616 3.00024 9.73553 3.07933 9.59493 3.21993C9.45433 3.36053 9.37524 3.55116 9.375 3.75V8.25H10.7197L9.85983 7.39017L10.3902 6.85983L11.7803 8.25H14.25C14.6477 8.25045 15.029 8.40863 15.3102 8.68983C15.5914 8.97104 15.7496 9.35231 15.75 9.75V11.4697L16.6098 10.6098L17.1402 11.1402L15.75 12.5303V14.0947L16.6098 13.2348L17.1402 13.7652L16.2803 14.625H20.25C20.4488 14.6248 20.6395 14.5457 20.7801 14.4051C20.9207 14.2645 20.9998 14.0738 21 13.875Z" fill="#3983DF"/>
<path d="M6.53034 21H8.09466L7.23483 20.1402L7.76517 19.6098L9.15534 21H10.7197L9.85983 20.1402L10.3902 19.6098L11.7803 21H14.25C14.4488 20.9998 14.6395 20.9207 14.7801 20.7801C14.9207 20.6395 14.9998 20.4488 15 20.25V18.5303L14.1402 19.3902L13.6098 18.8598L15 17.4697V15.9053L14.1402 16.7652L13.6098 16.2348L15 14.8447V13.2803L14.1402 14.1402L13.6098 13.6098L15 12.2197V9.75C14.9998 9.55116 14.9207 9.36053 14.7801 9.21993C14.6395 9.07933 14.4488 9.00024 14.25 9H12.5303L13.3902 9.85983L12.8598 10.3902L11.4697 9H9.90534L10.7652 9.85983L10.2348 10.3902L8.84466 9H7.28034L8.14017 9.85983L7.60983 10.3902L6.21966 9H3.75C3.55116 9.00024 3.36053 9.07933 3.21993 9.21993C3.07933 9.36053 3.00024 9.55116 3 9.75V11.4697L3.85983 10.6098L4.39017 11.1402L3 12.5303V14.0947L3.85983 13.2348L4.39017 13.7652L3 15.1553V16.7197L3.85983 15.8598L4.39017 16.3902L3 17.7803V20.25C3.00024 20.4488 3.07933 20.6395 3.21993 20.7801C3.36053 20.9207 3.55116 20.9998 3.75 21H5.46966L4.60983 20.1402L5.14017 19.6098L6.53034 21Z" fill="#3983DF"/>
<path d="M21.75 9.90541L22.6098 10.7652L23.1402 10.2349L21.75 8.84473V9.90541Z" fill="#3983DF"/>
<path d="M21.75 12.5304L22.6098 13.3902L23.1402 12.8599L21.75 11.4697V12.5304Z" fill="#3983DF"/>
<path d="M15.75 16.7197V17.7804L17.1402 16.3902L16.6098 15.8599L15.75 16.7197Z" fill="#3983DF"/>
<path d="M12.8598 23.1402L13.3902 22.6098L12.5303 21.75H11.4697L12.8598 23.1402Z" fill="#3983DF"/>
<path d="M8.84463 21.75L10.2348 23.1402L10.7651 22.6098L9.90531 21.75H8.84463Z" fill="#3983DF"/>
<path d="M8.14014 22.6098L7.28031 21.75H6.21963L7.6098 23.1402L8.14014 22.6098Z" fill="#3983DF"/>
<path d="M2.24999 17.4697L0.859812 18.8599L1.39016 19.3902L2.24999 18.5304V17.4697Z" fill="#3983DF"/>
<path d="M2.24999 15.9054V14.8447L0.859812 16.2349L1.39016 16.7652L2.24999 15.9054Z" fill="#3983DF"/>
<path d="M2.24999 13.2804V12.2197L0.859812 13.6099L1.39016 14.1402L2.24999 13.2804Z" fill="#3983DF"/>
<path d="M4.60981 7.39021L5.46964 8.25004H6.53033L5.14016 6.85986L4.60981 7.39021Z" fill="#3983DF"/>
<path d="M7.2333 7.39014L7.76355 6.85989L8.62325 7.71959L8.093 8.24984L7.2333 7.39014Z" fill="#3983DF"/>
<path d="M13.2803 2.25004L14.1402 1.39021L13.6098 0.859863L12.2197 2.25004H13.2803Z" fill="#3983DF"/>
<path d="M15.9053 2.25004L16.7652 1.39021L16.2348 0.859863L14.8447 2.25004H15.9053Z" fill="#3983DF"/>
<path d="M19.3902 1.39021L18.8598 0.859863L17.4697 2.25004H18.5303L19.3902 1.39021Z" fill="#3983DF"/>
<path d="M21.75 7.28041L22.6098 8.14024L23.1402 7.6099L21.75 6.21973V7.28041Z" fill="#3983DF"/>
</svg>
