<svg width="32" height="32" viewBox="0 0 32 32" fill="none" xmlns="http://www.w3.org/2000/svg">
<rect width="32" height="32" fill="#242424"/>
<path d="M-103 -26H1337V58H-103V-26Z" fill="white"/>
<g clip-path="url(#clip0)">
<path d="M1.9355 22.6699H30.0645C31.1334 22.6699 32 21.7203 32 20.1719V13.1879C32 12.0442 31.0729 11.1172 29.9293 11.1172C28.7857 11.1172 27.8586 12.0442 27.8586 13.1879H4.14144C4.14144 12.0442 3.21438 11.1172 2.07075 11.1172C0.927063 11.1172 0 12.0443 0 13.1879V20.1719C0 21.7203 0.866562 22.6699 1.9355 22.6699Z" fill="#F1CD65"/>
<path d="M27.8587 17.2345V9.24273C27.8587 7.81748 26.7034 6.66211 25.2781 6.66211H6.72223C5.29698 6.66211 4.1416 7.81748 4.1416 9.24273V17.2345L16.0002 17.797L27.8587 17.2345Z" fill="#E69644"/>
<path d="M29.3644 23.269L27.4745 22.7065L25.5845 23.269V24.4303L27.4745 24.9928L29.3644 24.4303V23.269Z" fill="#2A4A5F"/>
<path d="M25.5845 24.4302V24.6929C25.5845 25.0492 25.8733 25.3381 26.2297 25.3381H28.7193C29.0756 25.3381 29.3645 25.0492 29.3645 24.6929V24.4302H25.5845Z" fill="#315771"/>
<path d="M2.6355 24.4303L4.52544 24.9928L6.41537 24.4303V23.269L4.52544 22.7065L2.6355 23.269V24.4303Z" fill="#2A4A5F"/>
<path d="M2.6355 24.4302V24.6929C2.6355 25.0492 2.92437 25.3381 3.28069 25.3381H5.77025C6.12656 25.3381 6.41544 25.0492 6.41544 24.6929V24.4302H2.6355Z" fill="#315771"/>
<path d="M30.0645 22.1074H1.9355C0.866562 22.1074 0 21.2408 0 20.1719V21.3332C0 22.4021 0.866562 23.2687 1.9355 23.2687H30.0646C31.1335 23.2687 32.0001 22.4021 32.0001 21.3332V20.1719C32 21.2408 31.1334 22.1074 30.0645 22.1074Z" fill="#EBB34F"/>
<path d="M4.46416 18.3956H27.5361C27.7142 18.3956 27.8587 18.2512 27.8587 18.0731V17.2344H4.1416V18.0731C4.1416 18.2512 4.28604 18.3956 4.46416 18.3956Z" fill="#D48339"/>
<g style="mix-blend-mode:color">
<rect width="32" height="32" fill="#775443"/>
</g>
</g>
<defs>
<clipPath id="clip0">
<rect width="32" height="32" fill="white"/>
</clipPath>
</defs>
</svg>
