<svg width="32" height="32" viewBox="0 0 32 32" fill="none" xmlns="http://www.w3.org/2000/svg">
<path d="M22.9337 22.1984L21.8918 23.7612C21.6839 24.0731 21.4088 24.3393 21.0464 24.4351C19.8591 24.7488 16.7072 24.8904 11.9084 20.0917C7.1096 15.2929 7.25124 12.1409 7.56495 10.9536C7.66072 10.5912 7.92689 10.3161 8.23882 10.1082L9.80159 9.06635C10.9651 8.29066 11.2795 6.71863 10.5038 5.55511L7.55228 1.12776C6.87523 0.11219 5.57001 -0.275814 4.44813 0.204991L3.11668 0.775617C2.10522 1.2091 1.28015 1.98706 0.788022 2.97132C0.376865 3.79363 0.0581899 4.65957 0.0150126 5.57793C-0.121056 8.47204 0.513547 15.6023 8.45567 23.5444C16.3978 31.4865 23.528 32.1211 26.4221 31.985C27.3404 31.9418 28.2064 31.6231 29.0287 31.212C30.0129 30.7198 30.7909 29.8948 31.2244 28.8833L31.795 27.5519C32.2758 26.43 31.8878 25.1248 30.8722 24.4477L26.4449 21.4962C25.2814 20.7205 23.7093 21.0349 22.9337 22.1984Z" fill="#775443"/>
</svg>
