<svg width="28" height="27" viewBox="0 0 28 27" fill="none" xmlns="http://www.w3.org/2000/svg">
<path d="M13.0825 0.782405C13.4307 -0.0204747 14.5693 -0.0204759 14.9175 0.782404L18.11 8.14477C18.2549 8.47892 18.5701 8.70787 18.9326 8.74242L26.9212 9.50365C27.7924 9.58666 28.1442 10.6695 27.4882 11.2487L21.4728 16.5602C21.1997 16.8012 21.0794 17.1717 21.1586 17.5272L22.9032 25.36C23.0935 26.2142 22.1723 26.8834 21.4187 26.4385L14.5084 22.3588C14.1948 22.1737 13.8052 22.1737 13.4916 22.3588L6.58127 26.4385C5.82768 26.8834 4.90654 26.2142 5.0968 25.36L6.84144 17.5272C6.92062 17.1717 6.80026 16.8012 6.52723 16.5602L0.511769 11.2487C-0.144229 10.6695 0.207615 9.58666 1.07879 9.50365L9.06737 8.74242C9.42995 8.70787 9.74507 8.47892 9.88997 8.14477L13.0825 0.782405Z" fill="#775443"/>
</svg>
