<svg width="32" height="36" viewBox="0 0 32 36" fill="none" xmlns="http://www.w3.org/2000/svg">
<path fill-rule="evenodd" clip-rule="evenodd" d="M16 4.43333C19.0744 4.43333 21.5667 6.92562 21.5667 10V13.3333H23.6C24.4401 13.3333 24.8601 13.3333 25.181 13.4968C25.4632 13.6406 25.6927 13.8701 25.8365 14.1523C26 14.4732 26 14.8933 26 15.7333V28.2667C26 30.5069 26 31.627 25.564 32.4826C25.1805 33.2353 24.5686 33.8472 23.816 34.2307C22.9603 34.6667 21.8402 34.6667 19.6 34.6667H12.4C10.1598 34.6667 9.03969 34.6667 8.18404 34.2307C7.43139 33.8472 6.81947 33.2353 6.43597 32.4826C6 31.627 6 30.5069 6 28.2667V15.7333C6 14.8933 6 14.4732 6.16349 14.1523C6.3073 13.8701 6.53677 13.6406 6.81901 13.4968C7.13988 13.3333 7.55992 13.3333 8.4 13.3333H10.4333V10C10.4333 6.92562 12.9256 4.43333 16 4.43333ZM19.7667 13.3333V10C19.7667 7.91973 18.0803 6.23333 16 6.23333C13.9197 6.23333 12.2333 7.91973 12.2333 10V13.3333H19.7667ZM12.6667 16.6667C12.6667 17.403 12.0697 18 11.3333 18C10.597 18 10 17.403 10 16.6667C10 15.9303 10.597 15.3333 11.3333 15.3333C12.0697 15.3333 12.6667 15.9303 12.6667 16.6667ZM20.6667 18C21.403 18 22 17.403 22 16.6667C22 15.9303 21.403 15.3333 20.6667 15.3333C19.9303 15.3333 19.3333 15.9303 19.3333 16.6667C19.3333 17.403 19.9303 18 20.6667 18Z" fill="#775443"/>
<rect x="19" y="1" width="10" height="10" rx="5" fill="#3E85DC" stroke="white" stroke-width="2"/>
</svg>
