<svg width="24" height="24" viewBox="0 0 24 24" fill="none" xmlns="http://www.w3.org/2000/svg">
<path d="M12.5177 14.7268L11.864 13.2757C12.4872 12.8182 13.0224 12.2492 13.4406 11.5997L14.929 12.1637C15.2136 12.2716 15.5316 12.1282 15.6394 11.8437L16.1864 10.3998C16.2382 10.2631 16.2336 10.1115 16.1735 9.97827C16.1135 9.84505 16.0031 9.74113 15.8663 9.68934L14.3779 9.12536C14.4951 8.3617 14.4713 7.58107 14.3077 6.82546L15.7589 6.17178C15.8921 6.11172 15.996 6.0013 16.0478 5.86455C16.0996 5.72791 16.095 5.57628 16.0349 5.44305L15.4007 4.0353C15.2758 3.75783 14.9494 3.63441 14.6721 3.75926L13.2209 4.41294C12.7635 3.78978 12.1945 3.25456 11.545 2.83637L12.109 1.34795C12.2167 1.06343 12.0735 0.745291 11.789 0.63752L10.3452 0.0903973C10.2086 0.0387155 10.057 0.0432335 9.92367 0.10329C9.79044 0.163347 9.68653 0.273763 9.63473 0.410516L9.07086 1.89882C8.30643 1.78091 7.52448 1.80527 6.77085 1.96891L6.11728 0.517847C6.05722 0.38462 5.94681 0.280706 5.81006 0.228914C5.67352 0.177232 5.52178 0.18175 5.38856 0.241806L3.98069 0.875984C3.70322 1.00095 3.57969 1.32713 3.70465 1.6046L4.35834 3.05577C3.73518 3.51319 3.19996 4.08224 2.78176 4.73174L1.29335 4.16776C1.15681 4.11607 1.00519 4.1207 0.871848 4.18065C0.738621 4.2407 0.634707 4.35112 0.582915 4.48787L0.0359023 5.93166C-0.0718692 6.21619 0.0713854 6.53432 0.355911 6.64209L1.84433 7.20608C1.72708 7.96962 1.75088 8.75047 1.91452 9.50597L0.463242 10.1597C0.330015 10.2197 0.2261 10.3301 0.174308 10.4669C0.122516 10.6035 0.127145 10.7552 0.187201 10.8884L0.821378 12.2961C0.881325 12.4294 0.991852 12.5333 1.12849 12.5851C1.26525 12.6369 1.41677 12.6323 1.54999 12.5722L3.00116 11.9185C3.45859 12.5418 4.02753 13.0769 4.67713 13.4951L4.11315 14.9835C4.00538 15.268 4.14863 15.5861 4.43316 15.6939L5.87705 16.2409C5.93998 16.2647 6.0062 16.2766 6.07221 16.2766C6.14946 16.2766 6.22671 16.2604 6.29855 16.228C6.43178 16.168 6.5357 16.0576 6.58749 15.9208L7.15136 14.4325C7.91579 14.5503 8.69785 14.5261 9.45137 14.3624L10.1049 15.8135C10.165 15.9467 10.2754 16.0506 10.4122 16.1024C10.5488 16.1542 10.7005 16.1497 10.8337 16.0895L12.2414 15.4554C12.519 15.3305 12.6426 15.0043 12.5177 14.7268ZM11.6046 9.48933C11.0577 10.9329 9.65347 11.9027 8.11039 11.9027C7.65903 11.9027 7.21395 11.8207 6.78749 11.6592C5.85435 11.3057 5.11472 10.6099 4.7049 9.70003C4.29508 8.79025 4.26412 7.77524 4.61763 6.8421C5.16453 5.39853 6.56875 4.4287 8.11183 4.4287C8.56319 4.4287 9.00827 4.51068 9.43473 4.67223C10.3679 5.02574 11.1075 5.72152 11.5173 6.63129C11.9272 7.54118 11.9582 8.5562 11.6046 9.48933ZM23.855 17.0131C23.7562 16.9054 23.6186 16.8414 23.4727 16.8351L22.4349 16.7906C22.3393 16.3008 22.1668 15.8279 21.9243 15.3914L22.6896 14.689C22.9139 14.4833 22.9288 14.1348 22.723 13.9106L21.9631 13.0826C21.8644 12.9749 21.7267 12.9109 21.5807 12.9046C21.4351 12.8992 21.2922 12.9505 21.1846 13.0492L20.4194 13.7516C20.0052 13.4727 19.5488 13.2603 19.069 13.1233L19.1136 12.0854C19.1266 11.7814 18.8906 11.5244 18.5866 11.5114L17.4638 11.4633C17.1613 11.4518 16.9028 11.6862 16.8898 11.9901L16.8453 13.0279C16.3556 13.1235 15.8827 13.2961 15.4461 13.5384L14.7437 12.7731C14.645 12.6654 14.5074 12.6014 14.3615 12.5951C14.2156 12.5891 14.073 12.6409 13.9653 12.7397L13.1373 13.4996C12.9131 13.7053 12.8982 14.0539 13.1039 14.278L13.8063 15.0433C13.5274 15.4575 13.3151 15.9138 13.178 16.3937L12.1403 16.3491C11.8375 16.3369 11.5791 16.572 11.5661 16.876L11.518 17.9988C11.5117 18.1448 11.5637 18.2873 11.6626 18.3949C11.7613 18.5026 11.8989 18.5666 12.0449 18.5729L13.0827 18.6173C13.1782 19.1071 13.3508 19.58 13.5931 20.0166L12.8279 20.719C12.7202 20.8177 12.6562 20.9553 12.6499 21.1012C12.6436 21.2472 12.6956 21.3897 12.7945 21.4974L13.5544 22.3254C13.6531 22.4331 13.7908 22.4971 13.9368 22.5034C14.0821 22.5092 14.2253 22.4575 14.3329 22.3588L15.0981 21.6564C15.5124 21.9353 15.9687 22.1476 16.4485 22.2847L16.404 23.3226C16.391 23.6266 16.6268 23.8836 16.9308 23.8966L18.0536 23.9447C18.0615 23.9451 18.0693 23.9452 18.0772 23.9452C18.2149 23.9452 18.3479 23.8936 18.4497 23.8001C18.5574 23.7014 18.6214 23.5638 18.6277 23.4179L18.6722 22.38C19.1619 22.2845 19.6348 22.1119 20.0714 21.8696L20.7738 22.6349C20.8725 22.7426 21.0101 22.8066 21.156 22.8129C21.3026 22.8193 21.4446 22.7671 21.5522 22.6683L22.3802 21.9084C22.6045 21.7027 22.6193 21.3541 22.4136 21.13L21.7112 20.3647C21.9901 19.9504 22.2025 19.4942 22.3395 19.0143L23.3773 19.0589C23.681 19.0705 23.9383 18.836 23.9514 18.532L23.9995 17.4092C24.0058 17.2632 23.9538 17.1207 23.855 17.0131ZM17.6486 20.2709C16.2333 20.2103 15.1311 19.0094 15.1918 17.594C15.2509 16.215 16.3774 15.1348 17.7564 15.1348C17.7936 15.1348 17.8311 15.1356 17.8687 15.1372C19.284 15.1979 20.3862 16.3987 20.3255 17.8141C20.2648 19.2304 19.0755 20.3308 17.6486 20.2709Z" fill="#929EB0"/>
</svg>
