<svg width="24" height="24" viewBox="0 0 24 24" fill="#929EB0" xmlns="http://www.w3.org/2000/svg">
<path d="M0.842118 14.8047V4.59357C0.842118 4.02616 1.30208 3.56616 1.86953 3.56616H12.0754C12.6428 3.56616 13.1028 4.02616 13.1028 4.59357V14.8047C13.1028 14.9939 12.9495 15.1472 12.7603 15.1472H1.18459C0.995412 15.1472 0.842118 14.9939 0.842118 14.8047ZM9.08369 18.3028C9.08369 19.4797 8.12961 20.4337 6.95278 20.4337C5.77596 20.4337 4.82188 19.4797 4.82188 18.3028C4.82188 17.1259 5.77596 16.1719 6.95278 16.1719C8.12961 16.1719 9.08369 17.1259 9.08369 18.3028ZM8.0182 18.3028C8.0182 17.7144 7.54118 17.2374 6.95275 17.2374C6.36431 17.2374 5.88726 17.7144 5.88726 18.3028C5.88726 18.8912 6.36431 19.3683 6.95275 19.3683C7.54118 19.3683 8.0182 18.8912 8.0182 18.3028ZM5.11745 16.1719H0.342471C0.153333 16.1719 0 16.3252 0 16.5143V17.5534C0 17.7425 0.153333 17.8958 0.342471 17.8958H4.16984C4.26976 17.2102 4.61584 16.6045 5.11745 16.1719ZM20.2329 18.3028C20.2329 19.4797 19.2788 20.4337 18.102 20.4337C16.9251 20.4337 15.9711 19.4797 15.9711 18.3028C15.9711 17.1259 16.9251 16.1719 18.102 16.1719C19.2788 16.1719 20.2329 17.1259 20.2329 18.3028ZM19.1675 18.3028C19.1675 17.7144 18.6904 17.2374 18.102 17.2374C17.5135 17.2374 17.0365 17.7144 17.0365 18.3028C17.0365 18.8912 17.5135 19.3683 18.102 19.3683C18.6904 19.3683 19.1675 18.8912 19.1675 18.3028ZM24 16.5143V17.5534C24 17.7425 23.8467 17.8958 23.6575 17.8958H20.8848C20.6865 16.5357 19.516 15.4869 18.102 15.4869C16.6878 15.4869 15.5173 16.5357 15.3189 17.8958H9.73573C9.63577 17.2102 9.28973 16.6045 8.78812 16.1719H14.082V6.37616C14.082 5.99788 14.3887 5.69122 14.7669 5.69122H18.0001C18.9104 5.69122 19.7613 6.14341 20.2707 6.89788L22.355 9.98497C22.6607 10.4378 22.8241 10.9717 22.8241 11.5181V16.1719H23.6575C23.8467 16.1719 24 16.3252 24 16.5143ZM20.5258 10.064L18.8591 7.69568C18.7949 7.60455 18.6905 7.55031 18.579 7.55031H15.9792C15.7901 7.55031 15.6367 7.70364 15.6367 7.89278V10.2611C15.6367 10.4503 15.7901 10.6036 15.9792 10.6036H20.2458C20.5232 10.6036 20.6855 10.2909 20.5258 10.064Z" fill="#929EB0"/>
</svg>
